<svg width="74" height="51" viewBox="0 0 74 51" fill="none" xmlns="http://www.w3.org/2000/svg">
<path d="M61.4741 0.362305H12.7504H12.7512C9.44497 0.362305 6.27469 1.65351 3.93746 3.95295C1.59941 6.25165 0.286621 9.36966 0.286621 12.6214V38.2532V38.2524C0.286621 41.5042 1.59947 44.6222 3.93746 46.9209C6.27469 49.2204 9.44497 50.5115 12.7512 50.5115H61.4749H61.4741C64.7803 50.5115 67.9506 49.2203 70.2878 46.9209C72.6259 44.6222 73.9387 41.5042 73.9387 38.2524V12.6206V12.6214C73.9387 9.36966 72.6258 6.25165 70.2878 3.95295C67.9506 1.65345 64.7803 0.362305 61.4741 0.362305ZM51.5373 25.9265L29.4417 37.0707C29.2663 37.1593 29.0568 37.1531 28.8884 37.0528C28.7193 36.9533 28.6157 36.7738 28.6142 36.5802V14.2917C28.6157 14.0981 28.7193 13.9185 28.8884 13.819C29.0568 13.7188 29.2663 13.7125 29.4417 13.8012L51.5373 24.9454C51.7262 25.041 51.8456 25.2323 51.8456 25.4414C51.8456 25.6505 51.7262 25.8417 51.5373 25.9373V25.9265Z" fill="white"/>
</svg>
